<svg width="43" height="12" viewBox="0 0 43 12" fill="none" xmlns="http://www.w3.org/2000/svg">
<path d="M8.97635 12.0035H8.39942H6.24969L5.55989 8.4355L4.87009 12.0035H2.14396L0.379028 2.88105H2.52876L3.50702 7.93863L4.48529 2.88132H6.63449L7.61275 7.93889L8.59128 2.88158H10.741L8.97635 12.0035ZM21.2951 12.0035H20.7179H18.922L18.0548 7.52047L17.1889 12.0035H15.0394L16.8041 2.88078H18.9535L19.9318 7.93836L20.9103 2.88078H23.0598L21.2949 12.0035H21.2951ZM25.4227 12.0035H23.273L25.4417 0.795898H27.589L27.4753 1.38563L27.4601 1.46329L27.304 2.27691L27.1871 2.88158L25.4227 12.0035ZM13.0823 12.0035H10.9331L12.6978 2.88078H14.8473L13.0823 12.0035ZM40.6678 12.0035H34.8897L35.2924 9.91784H41.0686L40.6683 12.0035H40.6678ZM33.1555 12.0035H27.3793L27.7819 9.91784H33.5579L33.1552 12.0035H33.1555ZM41.3515 8.46672H35.5742L35.9769 6.38077H41.7528L41.3525 8.46645L41.3515 8.46672ZM33.8415 8.46672H28.0637L28.4664 6.38077H34.2442L33.8418 8.46538L33.8415 8.46672ZM42.0282 4.96807H36.2509L36.6536 2.88212H42.4309L42.0282 4.9678V4.96807ZM34.5177 4.96807H28.7418L29.1453 2.88078H34.9215L34.5188 4.96647L34.5177 4.96807Z" fill="#314961"/>
</svg>
