<svg width="58" height="57" viewBox="0 0 58 57" fill="none" xmlns="http://www.w3.org/2000/svg">
<path d="M2.71875 2.67188H55.2812V9.79688H2.71875V2.67188Z" fill="#12253B"/>
<path d="M37.1562 25.8281C37.637 25.8281 38.098 26.0158 38.4379 26.3498C38.7778 26.6839 38.9688 27.137 38.9688 27.6094V31.1719H51.6562V13.3594H6.34375V31.1719H35.3438V27.6094C35.3438 27.137 35.5347 26.6839 35.8746 26.3498C36.2145 26.0158 36.6755 25.8281 37.1562 25.8281ZM26.2812 25.8281V18.7031L33.5312 22.2656L26.2812 25.8281Z" fill="#12253B"/>
<path d="M49.8438 36.5156V47.9869C49.8349 48.3257 49.7772 48.6615 49.6725 48.9844H55.2812V34.7344H48.0312C48.512 34.7344 48.973 34.922 49.3129 35.2561C49.6528 35.5901 49.8438 36.0432 49.8438 36.5156Z" fill="#12253B"/>
<path d="M28.5469 39.688C28.8247 39.4088 29.1614 39.1928 29.5333 39.0552C29.9053 38.9177 30.3034 38.8619 30.6996 38.8919C31.0958 38.9218 31.4805 39.0368 31.8266 39.2287C32.1728 39.4206 32.4719 39.6847 32.7029 40.0024L35.3438 43.6406V34.7344H2.71875V48.9844H34.0995L28.101 40.1325L28.5469 39.688Z" fill="#12253B"/>
<path d="M33.9363 21.4684L26.6863 17.9059C26.5481 17.8381 26.3946 17.8061 26.2402 17.8129C26.0859 17.8198 25.9359 17.8653 25.8045 17.9452C25.6731 18.0251 25.5647 18.1366 25.4895 18.2693C25.4144 18.4019 25.3749 18.5512 25.375 18.7031V25.8281C25.3749 25.9799 25.4144 26.1292 25.4895 26.2619C25.5647 26.3945 25.6731 26.506 25.8045 26.5859C25.9359 26.6658 26.0859 26.7113 26.2402 26.7182C26.3946 26.725 26.5481 26.693 26.6863 26.6252L33.9363 23.0627C34.0871 22.9888 34.214 22.8751 34.3027 22.7343C34.3914 22.5935 34.4383 22.4311 34.4383 22.2656C34.4383 22.1 34.3914 21.9376 34.3027 21.7968C34.214 21.656 34.0871 21.5423 33.9363 21.4684ZM27.1875 24.387V20.1441L31.5049 22.2656L27.1875 24.387Z" fill="#59738C"/>
<path d="M9.96875 37.4062H8.15625C7.9159 37.4062 7.68539 37.5001 7.51543 37.6671C7.34548 37.8341 7.25 38.0607 7.25 38.2969C7.25 38.5331 7.34548 38.7596 7.51543 38.9266C7.68539 39.0937 7.9159 39.1875 8.15625 39.1875H9.96875C10.2091 39.1875 10.4396 39.0937 10.6096 38.9266C10.7795 38.7596 10.875 38.5331 10.875 38.2969C10.875 38.0607 10.7795 37.8341 10.6096 37.6671C10.4396 37.5001 10.2091 37.4062 9.96875 37.4062Z" fill="#59738C"/>
<path d="M24.4688 37.4062H13.5938C13.3534 37.4062 13.1229 37.5001 12.9529 37.6671C12.783 37.8341 12.6875 38.0607 12.6875 38.2969C12.6875 38.5331 12.783 38.7596 12.9529 38.9266C13.1229 39.0937 13.3534 39.1875 13.5938 39.1875H24.4688C24.7091 39.1875 24.9396 39.0937 25.1096 38.9266C25.2795 38.7596 25.375 38.5331 25.375 38.2969C25.375 38.0607 25.2795 37.8341 25.1096 37.6671C24.9396 37.5001 24.7091 37.4062 24.4688 37.4062Z" fill="#59738C"/>
<path d="M9.96875 40.9688H8.15625C7.9159 40.9688 7.68539 41.0626 7.51543 41.2296C7.34548 41.3966 7.25 41.6232 7.25 41.8594C7.25 42.0956 7.34548 42.3221 7.51543 42.4891C7.68539 42.6562 7.9159 42.75 8.15625 42.75H9.96875C10.2091 42.75 10.4396 42.6562 10.6096 42.4891C10.7795 42.3221 10.875 42.0956 10.875 41.8594C10.875 41.6232 10.7795 41.3966 10.6096 41.2296C10.4396 41.0626 10.2091 40.9688 9.96875 40.9688Z" fill="#59738C"/>
<path d="M24.4688 40.9688H13.5938C13.3534 40.9688 13.1229 41.0626 12.9529 41.2296C12.783 41.3966 12.6875 41.6232 12.6875 41.8594C12.6875 42.0956 12.783 42.3221 12.9529 42.4891C13.1229 42.6562 13.3534 42.75 13.5938 42.75H24.4688C24.7091 42.75 24.9396 42.6562 25.1096 42.4891C25.2795 42.3221 25.375 42.0956 25.375 41.8594C25.375 41.6232 25.2795 41.3966 25.1096 41.2296C24.9396 41.0626 24.7091 40.9688 24.4688 40.9688Z" fill="#59738C"/>
<path d="M9.96875 44.5312H8.15625C7.9159 44.5312 7.68539 44.6251 7.51543 44.7921C7.34548 44.9591 7.25 45.1857 7.25 45.4219C7.25 45.6581 7.34548 45.8846 7.51543 46.0516C7.68539 46.2187 7.9159 46.3125 8.15625 46.3125H9.96875C10.2091 46.3125 10.4396 46.2187 10.6096 46.0516C10.7795 45.8846 10.875 45.6581 10.875 45.4219C10.875 45.1857 10.7795 44.9591 10.6096 44.7921C10.4396 44.6251 10.2091 44.5312 9.96875 44.5312Z" fill="#59738C"/>
<path d="M24.4688 44.5312H13.5938C13.3534 44.5312 13.1229 44.6251 12.9529 44.7921C12.783 44.9591 12.6875 45.1857 12.6875 45.4219C12.6875 45.6581 12.783 45.8846 12.9529 46.0516C13.1229 46.2187 13.3534 46.3125 13.5938 46.3125H24.4688C24.7091 46.3125 24.9396 46.2187 25.1096 46.0516C25.2795 45.8846 25.375 45.6581 25.375 45.4219C25.375 45.1857 25.2795 44.9591 25.1096 44.7921C24.9396 44.6251 24.7091 44.5312 24.4688 44.5312Z" fill="#59738C"/>
<path d="M55.2812 1.78125H2.71875C2.4784 1.78125 2.24789 1.87508 2.07793 2.04211C1.90798 2.20913 1.8125 2.43567 1.8125 2.67188V48.9844C1.8125 49.2206 1.90798 49.4471 2.07793 49.6141C2.24789 49.7812 2.4784 49.875 2.71875 49.875H33.5312C33.5563 49.8733 33.5808 49.8673 33.6038 49.8572L33.9844 50.4183C34.2817 50.8558 34.4394 51.3706 34.4375 51.8967V54.3281C34.4375 54.5643 34.533 54.7909 34.7029 54.9579C34.8729 55.1249 35.1034 55.2188 35.3438 55.2188H48.0312C48.2716 55.2188 48.5021 55.1249 48.6721 54.9579C48.842 54.7909 48.9375 54.5643 48.9375 54.3281V52.7339C48.9343 52.2076 49.0922 51.6925 49.3906 51.2555L49.9978 50.3738C50.1003 50.2124 50.194 50.046 50.2788 49.875H55.2812C55.5216 49.875 55.7521 49.7812 55.9221 49.6141C56.092 49.4471 56.1875 49.2206 56.1875 48.9844V2.67188C56.1875 2.43567 56.092 2.20913 55.9221 2.04211C55.7521 1.87508 55.5216 1.78125 55.2812 1.78125ZM48.9375 47.9602C48.9262 48.4676 48.7691 48.9617 48.4844 49.3852L47.8862 50.2669C47.3885 50.9965 47.1235 51.8555 47.125 52.7339V53.4375H36.25V51.8967C36.2515 51.0183 35.9865 50.1593 35.4888 49.4297L29.2628 40.2384C29.4473 40.0749 29.6639 39.9503 29.8992 39.8722C30.1346 39.7941 30.3837 39.7641 30.6312 39.7842C30.8953 39.802 31.152 39.8777 31.3825 40.0056C31.613 40.1335 31.8115 40.3104 31.9634 40.5234L34.6097 44.1572C34.7192 44.3133 34.8777 44.43 35.0609 44.4895C35.2441 44.549 35.4421 44.548 35.6247 44.4867C35.8064 44.4285 35.9647 44.3153 36.077 44.1634C36.1893 44.0114 36.2499 43.8284 36.25 43.6406V27.6094C36.25 27.3732 36.3455 27.1466 36.5154 26.9796C36.6854 26.8126 36.9159 26.7188 37.1562 26.7188C37.3966 26.7188 37.6271 26.8126 37.7971 26.9796C37.967 27.1466 38.0625 27.3732 38.0625 27.6094V38.2969C38.0625 38.5331 38.158 38.7596 38.3279 38.9266C38.4979 39.0937 38.7284 39.1875 38.9688 39.1875C39.2091 39.1875 39.4396 39.0937 39.6096 38.9266C39.7795 38.7596 39.875 38.5331 39.875 38.2969V36.5156C39.875 36.2794 39.9705 36.0529 40.1404 35.8859C40.3104 35.7188 40.5409 35.625 40.7812 35.625C41.0216 35.625 41.2521 35.7188 41.4221 35.8859C41.592 36.0529 41.6875 36.2794 41.6875 36.5156V38.2969C41.6875 38.5331 41.783 38.7596 41.9529 38.9266C42.1229 39.0937 42.3534 39.1875 42.5938 39.1875C42.8341 39.1875 43.0646 39.0937 43.2346 38.9266C43.4045 38.7596 43.5 38.5331 43.5 38.2969V36.5156C43.5 36.2794 43.5955 36.0529 43.7654 35.8859C43.9354 35.7188 44.1659 35.625 44.4062 35.625C44.6466 35.625 44.8771 35.7188 45.0471 35.8859C45.217 36.0529 45.3125 36.2794 45.3125 36.5156V38.2969C45.3125 38.5331 45.408 38.7596 45.5779 38.9266C45.7479 39.0937 45.9784 39.1875 46.2188 39.1875C46.4591 39.1875 46.6896 39.0937 46.8596 38.9266C47.0295 38.7596 47.125 38.5331 47.125 38.2969V36.5156C47.125 36.2794 47.2205 36.0529 47.3904 35.8859C47.5604 35.7188 47.7909 35.625 48.0312 35.625C48.2716 35.625 48.5021 35.7188 48.6721 35.8859C48.842 36.0529 48.9375 36.2794 48.9375 36.5156V47.9602ZM54.375 33.8438H52.5625C52.3221 33.8438 52.0916 33.9376 51.9217 34.1046C51.7517 34.2716 51.6562 34.4982 51.6562 34.7344C51.6562 34.9706 51.7517 35.1971 51.9217 35.3641C52.0916 35.5312 52.3221 35.625 52.5625 35.625H54.375V48.0938H50.7409C50.7409 48.0581 50.75 48.0225 50.75 47.9869V36.5156C50.7478 35.8077 50.4607 35.1293 49.9513 34.6287C49.4419 34.128 48.7516 33.8459 48.0312 33.8438C47.3601 33.8455 46.7138 34.0932 46.2188 34.5384C45.7246 34.0917 45.0777 33.8437 44.4062 33.8437C43.7348 33.8437 43.0879 34.0917 42.5938 34.5384C42.0987 34.0932 41.4524 33.8455 40.7812 33.8438C40.4721 33.8462 40.1656 33.9004 39.875 34.0041V27.6094C39.875 26.9007 39.5886 26.2211 39.0787 25.7201C38.5688 25.219 37.8773 24.9375 37.1562 24.9375C36.4352 24.9375 35.7437 25.219 35.2338 25.7201C34.7239 26.2211 34.4375 26.9007 34.4375 27.6094V40.8619L33.4406 39.4814C33.1316 39.0583 32.7321 38.7067 32.2702 38.4513C31.8083 38.196 31.2951 38.043 30.7667 38.0031C30.2382 37.9632 29.7073 38.0374 29.2111 38.2205C28.715 38.4035 28.2655 38.691 27.8944 39.0628L27.4503 39.5081C27.3069 39.6546 27.2188 39.845 27.2007 40.0475C27.1825 40.25 27.2355 40.4525 27.3506 40.6214L32.4075 48.0938H3.625V35.625H31.7188C31.9591 35.625 32.1896 35.5312 32.3596 35.3641C32.5295 35.1971 32.625 34.9706 32.625 34.7344C32.625 34.4982 32.5295 34.2716 32.3596 34.1046C32.1896 33.9376 31.9591 33.8438 31.7188 33.8438H3.625V10.6875H54.375V33.8438ZM54.375 8.90625H3.625V3.5625H54.375V8.90625Z" fill="#59738C"/>
<path d="M7.25 5.34375H6.34375C6.1034 5.34375 5.87289 5.43758 5.70293 5.60461C5.53298 5.77163 5.4375 5.99817 5.4375 6.23438C5.4375 6.47058 5.53298 6.69712 5.70293 6.86414C5.87289 7.03117 6.1034 7.125 6.34375 7.125H7.25C7.49035 7.125 7.72086 7.03117 7.89082 6.86414C8.06077 6.69712 8.15625 6.47058 8.15625 6.23438C8.15625 5.99817 8.06077 5.77163 7.89082 5.60461C7.72086 5.43758 7.49035 5.34375 7.25 5.34375Z" fill="#59738C"/>
<path d="M11.7812 5.34375H10.875C10.6346 5.34375 10.4041 5.43758 10.2342 5.60461C10.0642 5.77163 9.96875 5.99817 9.96875 6.23438C9.96875 6.47058 10.0642 6.69712 10.2342 6.86414C10.4041 7.03117 10.6346 7.125 10.875 7.125H11.7812C12.0216 7.125 12.2521 7.03117 12.4221 6.86414C12.592 6.69712 12.6875 6.47058 12.6875 6.23438C12.6875 5.99817 12.592 5.77163 12.4221 5.60461C12.2521 5.43758 12.0216 5.34375 11.7812 5.34375Z" fill="#59738C"/>
<path d="M16.3125 5.34375H15.4062C15.1659 5.34375 14.9354 5.43758 14.7654 5.60461C14.5955 5.77163 14.5 5.99817 14.5 6.23438C14.5 6.47058 14.5955 6.69712 14.7654 6.86414C14.9354 7.03117 15.1659 7.125 15.4062 7.125H16.3125C16.5529 7.125 16.7834 7.03117 16.9533 6.86414C17.1233 6.69712 17.2188 6.47058 17.2188 6.23438C17.2188 5.99817 17.1233 5.77163 16.9533 5.60461C16.7834 5.43758 16.5529 5.34375 16.3125 5.34375Z" fill="#59738C"/>
<path d="M52.5625 31.1719V13.3594C52.5625 13.1232 52.467 12.8966 52.2971 12.7296C52.1271 12.5626 51.8966 12.4688 51.6562 12.4688H6.34375C6.1034 12.4688 5.87289 12.5626 5.70293 12.7296C5.53298 12.8966 5.4375 13.1232 5.4375 13.3594V31.1719C5.4375 31.4081 5.53298 31.6346 5.70293 31.8016C5.87289 31.9687 6.1034 32.0625 6.34375 32.0625H31.7188C31.9591 32.0625 32.1896 31.9687 32.3596 31.8016C32.5295 31.6346 32.625 31.4081 32.625 31.1719C32.625 30.9357 32.5295 30.7091 32.3596 30.5421C32.1896 30.3751 31.9591 30.2812 31.7188 30.2812H7.25V14.25H50.75V30.2812H42.5938C42.3534 30.2812 42.1229 30.3751 41.9529 30.5421C41.783 30.7091 41.6875 30.9357 41.6875 31.1719C41.6875 31.4081 41.783 31.6346 41.9529 31.8016C42.1229 31.9687 42.3534 32.0625 42.5938 32.0625H51.6562C51.8966 32.0625 52.1271 31.9687 52.2971 31.8016C52.467 31.6346 52.5625 31.4081 52.5625 31.1719Z" fill="#59738C"/>
</svg>
